<svg xmlns="http://www.w3.org/2000/svg" width="180" height="28" viewBox="0 0 180 28" fill="none">
<path fill-rule="evenodd" clip-rule="evenodd" d="M27.0127 0.000100168H3.5482C1.59663 0.000100168 0 1.59668 0 3.54831V4.33708C0.641877 4.4352 1.35462 4.62462 2.12677 4.89848C4.5581 5.76108 7.58538 7.46599 10.8357 9.81979C13.4773 7.85179 15.908 6.44387 17.8798 5.74505C19.8058 5.0623 21.3007 5.05439 22.1369 5.85744C23.0841 6.76656 23.0461 8.58447 22.2012 10.9655C21.3382 13.3968 19.6334 16.4241 17.2798 19.6743C19.248 22.316 20.6556 24.7471 21.3544 26.7189C21.3899 26.818 21.4229 26.9158 21.4545 27.0127H23.4645C25.416 27.0127 27.0127 25.4164 27.0127 23.4649V0L27.0127 0.000100168ZM0 14.8979V23.4646C0 24.7921 0.738689 25.9548 1.82521 26.5629C2.6533 26.5873 3.65538 26.384 4.79494 25.9743C7.11799 25.1398 10.0082 23.4494 13.1689 21.0828C13.1939 21.0637 13.23 21.0691 13.2493 21.0941C13.2667 21.1175 13.2636 21.1505 13.2429 21.1704C12.3525 22.0194 11.4654 22.8228 10.5902 23.5757C9.69912 24.3421 8.81975 25.0568 7.96101 25.7142L7.9606 25.7146L7.45931 26.0933L7.45911 26.0936L7.45851 26.094L7.45811 26.0943C7.02714 26.4158 6.60162 26.7223 6.18202 27.0127H17.1352C17.9463 26.0788 17.9003 24.4324 17.1359 22.3047C16.3011 19.9817 14.6107 17.0916 12.2441 13.9306C12.2251 13.9056 12.2302 13.8691 12.2555 13.8501C12.2789 13.8327 12.3119 13.8359 12.3316 13.8565H12.3319C13.1808 14.747 13.9846 15.6342 14.7376 16.5095C15.4824 17.3755 16.1783 18.2306 16.8206 19.0666C17.9326 16.898 18.6499 14.9746 18.906 13.4214C19.1534 11.9201 18.9701 10.7675 18.2955 10.0784C17.387 9.15067 15.6891 9.16484 13.4657 9.96383C11.1427 10.7986 8.2529 12.4886 5.09199 14.8553C5.0669 14.8742 5.03094 14.8692 5.01146 14.8438C4.99413 14.8204 4.99733 14.7875 5.01807 14.7678H5.01792C5.90801 13.9192 6.7947 13.1158 7.66962 12.3635C8.53572 11.6181 9.39171 10.922 10.2279 10.2795C8.05937 9.16745 6.13594 8.44979 4.58289 8.19366C3.08127 7.946 1.92879 8.1294 1.23968 8.80414C0.311573 9.71271 0.326197 11.4107 1.12509 13.6335C1.95954 15.9566 3.64992 18.8468 6.01659 22.0072C6.03573 22.0324 6.03017 22.0686 6.00487 22.0876C5.98179 22.1053 5.94878 22.1022 5.92885 22.0812V22.0816C5.08022 21.1914 4.27713 20.3048 3.52451 19.4298C2.75783 18.5384 2.04283 17.6588 1.38542 16.7996L1.38507 16.7993L1.00614 16.298L1.00569 16.2977L1.00554 16.2971L1.00504 16.2967C0.651693 15.8233 0.316631 15.3565 5.0084e-05 14.898V14.8979L0 14.8979Z" fill="#4C51C6"/>
<path d="M49.3977 14.6049C49.3977 16.6544 48.7495 18.2228 47.4738 19.2894C46.198 20.3769 44.3579 20.9205 41.9946 20.9205C39.6105 20.9205 37.7702 20.3768 36.4945 19.2894C35.1979 18.2228 34.5495 16.6544 34.5495 14.6049V6.07243H37.9583V14.8767C37.9583 15.6715 38.1045 16.278 38.3766 16.6963C38.6484 17.1354 39.0876 17.4283 39.6523 17.5746C40.2168 17.742 41.0116 17.8255 41.9946 17.8255C42.9774 17.8255 43.7721 17.742 44.3368 17.5746C44.9013 17.4072 45.3406 17.1144 45.6125 16.6753C45.8843 16.257 46.0098 15.6505 46.0098 14.8767V6.07243H49.3977V14.6049H49.3977ZM51.5517 17.4702L59.8334 9.06313H51.7817V6.07257H64.4133V9.41866L56.0899 17.7212H64.6224V20.7117H51.5516V17.4703L51.5517 17.4702ZM66.9648 6.0725H70.4574V20.7116H66.9648V6.0725ZM73.7407 6.0725H78.2787L84.1135 14.2077L85.4937 16.1736H85.5774L85.5565 14.2496V6.0725H88.9445V20.7116H84.5945L78.5925 12.2627L77.1912 10.2551H77.1076L77.1286 12.2627V20.7116H73.7406V6.0725H73.7406H73.7407ZM95.6156 9.18843V12.1582H102.58V15.1696H95.6156V20.7116H92.2069V6.0725H103.27V9.18843H95.6156ZM113.517 20.9206C111.865 20.9206 110.38 20.6069 109.105 20.0005C107.829 19.394 106.825 18.5365 106.114 17.4073C105.382 16.2781 105.027 14.9604 105.027 13.4339C105.027 11.9072 105.382 10.5687 106.114 9.41852C106.825 8.26822 107.829 7.3899 109.126 6.78349C110.401 6.177 111.865 5.86328 113.517 5.86328C115.17 5.86328 116.654 6.177 117.93 6.78349C119.206 7.3899 120.189 8.26822 120.9 9.41852C121.611 10.5687 121.966 11.9072 121.966 13.4339C121.966 14.9605 121.611 16.2781 120.9 17.4073C120.168 18.5365 119.185 19.394 117.909 20.0005C116.633 20.6069 115.17 20.9206 113.517 20.9206H113.517ZM113.517 17.8256C115.232 17.8256 116.487 17.4701 117.282 16.759C118.056 16.0689 118.453 14.9397 118.453 13.3921C118.453 12.2628 118.286 11.3843 117.93 10.7361C117.574 10.0879 117.052 9.62773 116.341 9.3559C115.63 9.08407 114.688 8.95841 113.517 8.95841C112.346 8.95841 111.405 9.084 110.694 9.3559C109.962 9.62773 109.439 10.0879 109.084 10.7361C108.728 11.3843 108.561 12.2628 108.561 13.3921C108.561 14.5424 108.728 15.4415 109.084 16.0899C109.439 16.7383 109.962 17.1774 110.673 17.4284C111.384 17.7002 112.325 17.8257 113.517 17.8257V17.8256ZM131.9 20.9206C130.227 20.9206 128.742 20.6069 127.466 20.0005C126.17 19.394 125.166 18.5365 124.455 17.4073C123.723 16.2781 123.367 14.9604 123.367 13.4339C123.367 11.8862 123.702 10.5479 124.392 9.39764C125.082 8.2683 126.065 7.3899 127.341 6.78356C128.617 6.17707 130.143 5.86335 131.9 5.86335C134.096 5.86335 135.853 6.38607 137.191 7.41092C138.508 8.45657 139.324 10.0041 139.638 12.0327L136.229 12.6811L136.187 12.6602C136.02 11.6562 135.811 10.9035 135.539 10.3806C135.267 9.85789 134.87 9.50222 134.326 9.2722C133.761 9.06313 132.967 8.95848 131.9 8.95848C130.624 8.95848 129.641 9.08407 128.93 9.35597C128.198 9.6278 127.697 10.088 127.383 10.7362C127.069 11.3844 126.902 12.2628 126.902 13.3922C126.902 14.5425 127.069 15.4207 127.383 16.069C127.697 16.7173 128.219 17.1566 128.951 17.4284C129.662 17.7002 130.645 17.8257 131.9 17.8257C132.967 17.8257 133.761 17.7002 134.326 17.4701C134.891 17.2401 135.288 16.8844 135.56 16.3617C135.832 15.8389 136.041 15.0861 136.187 14.1031L136.229 14.0822L139.638 14.7304C139.324 16.7799 138.508 18.3274 137.191 19.3522C135.853 20.3979 134.096 20.9206 131.9 20.9206ZM149.844 20.9206C148.191 20.9206 146.706 20.6069 145.431 20.0005C144.155 19.394 143.151 18.5365 142.44 17.4073C141.708 16.2781 141.353 14.9604 141.353 13.4339C141.353 11.9072 141.708 10.5687 142.44 9.41852C143.151 8.26822 144.155 7.3899 145.452 6.78349C146.728 6.177 148.191 5.86328 149.843 5.86328C151.496 5.86328 152.98 6.177 154.256 6.78349C155.532 7.3899 156.515 8.26822 157.226 9.41852C157.937 10.5687 158.292 11.9072 158.292 13.4339C158.292 14.9605 157.937 16.2781 157.226 17.4073C156.494 18.5365 155.511 19.394 154.235 20.0005C152.96 20.6069 151.496 20.9206 149.844 20.9206H149.844ZM149.844 17.8256C151.558 17.8256 152.813 17.4701 153.608 16.759C154.382 16.0689 154.779 14.9397 154.779 13.3921C154.779 12.2628 154.612 11.3843 154.256 10.7361C153.901 10.0879 153.378 9.62773 152.667 9.3559C151.956 9.08407 151.015 8.95841 149.844 8.95841C148.672 8.95841 147.731 9.084 147.02 9.3559C146.288 9.62773 145.765 10.0879 145.41 10.7361C145.054 11.3843 144.887 12.2628 144.887 13.3921C144.887 14.5424 145.054 15.4415 145.41 16.0899C145.765 16.7383 146.288 17.1774 146.999 17.4284C147.71 17.7002 148.651 17.8257 149.844 17.8257V17.8256ZM160.634 6.0725H166.407L169.418 14.6469L170.338 17.6375L171.258 14.6469L174.249 6.0725H180V20.7116H176.738V12.1791L176.779 9.23024H176.696L175.629 12.1791L172.451 20.7116H168.226L165.026 12.1791L163.981 9.23024H163.897L163.918 12.1791V20.7116H160.635V6.0725H160.635H160.634Z" fill="#FE830C"/>
<script xmlns=""/></svg>